<mxfile host="app.diagrams.net" agent="Mozilla/5.0 (Windows NT 10.0; Win64; x64) AppleWebKit/537.36 (KHTML, like Gecko) Chrome/131.0.0.0 Safari/537.36 Edg/131.0.0.0" version="24.8.6">
  <diagram id="55P5-Muvj8byayjzf8jn" name="Страница — 1">
    <mxGraphModel dx="372" dy="193" grid="1" gridSize="10" guides="1" tooltips="1" connect="1" arrows="1" fold="1" page="1" pageScale="1" pageWidth="1384" pageHeight="980" math="0" shadow="0">
      <root>
        <mxCell id="0" />
        <mxCell id="1" parent="0" />
        <mxCell id="m1x12OwFOVvSkLnHGj8w-1" value="Гость" style="shape=umlActor;verticalLabelPosition=bottom;verticalAlign=top;html=1;outlineConnect=0;fontSize=14;fontFamily=Times New Roman;" parent="1" vertex="1">
          <mxGeometry x="190" y="710" width="30" height="60" as="geometry" />
        </mxCell>
        <mxCell id="m1x12OwFOVvSkLnHGj8w-2" value="Авторизованный &lt;br style=&quot;font-size: 14px;&quot;&gt;пользователь" style="shape=umlActor;verticalLabelPosition=bottom;verticalAlign=top;html=1;outlineConnect=0;fontSize=14;fontFamily=Times New Roman;" parent="1" vertex="1">
          <mxGeometry x="190" y="402.5" width="30" height="60" as="geometry" />
        </mxCell>
        <mxCell id="m1x12OwFOVvSkLnHGj8w-3" value="" style="rounded=0;whiteSpace=wrap;html=1;fontSize=14;fontFamily=Times New Roman;" parent="1" vertex="1">
          <mxGeometry x="300" y="230" width="700" height="640" as="geometry" />
        </mxCell>
        <mxCell id="m1x12OwFOVvSkLnHGj8w-4" value="Просмотр товаров" style="ellipse;whiteSpace=wrap;html=1;fontSize=14;fontFamily=Times New Roman;" parent="1" vertex="1">
          <mxGeometry x="350" y="660" width="140" height="75" as="geometry" />
        </mxCell>
        <mxCell id="m1x12OwFOVvSkLnHGj8w-5" value="Добавление товара в корзину" style="ellipse;whiteSpace=wrap;html=1;fontSize=14;fontFamily=Times New Roman;" parent="1" vertex="1">
          <mxGeometry x="350" y="760" width="140" height="75" as="geometry" />
        </mxCell>
        <mxCell id="m1x12OwFOVvSkLnHGj8w-6" value="Оформление заказа" style="ellipse;whiteSpace=wrap;html=1;fontSize=14;fontFamily=Times New Roman;" parent="1" vertex="1">
          <mxGeometry x="340" y="290" width="140" height="75" as="geometry" />
        </mxCell>
        <mxCell id="m1x12OwFOVvSkLnHGj8w-7" value="Оценка и комментирование товара" style="ellipse;whiteSpace=wrap;html=1;fontSize=14;fontFamily=Times New Roman;" parent="1" vertex="1">
          <mxGeometry x="340" y="395" width="140" height="75" as="geometry" />
        </mxCell>
        <mxCell id="m1x12OwFOVvSkLnHGj8w-8" value="Управление персональным профилем" style="ellipse;whiteSpace=wrap;html=1;fontSize=14;fontFamily=Times New Roman;" parent="1" vertex="1">
          <mxGeometry x="343" y="500" width="140" height="75" as="geometry" />
        </mxCell>
        <mxCell id="m1x12OwFOVvSkLnHGj8w-9" value="Управление пользователями" style="ellipse;whiteSpace=wrap;html=1;fontSize=14;fontFamily=Times New Roman;" parent="1" vertex="1">
          <mxGeometry x="780" y="640" width="140" height="75" as="geometry" />
        </mxCell>
        <mxCell id="m1x12OwFOVvSkLnHGj8w-10" value="Просмотр и анализ статистики" style="ellipse;whiteSpace=wrap;html=1;fontSize=14;fontFamily=Times New Roman;" parent="1" vertex="1">
          <mxGeometry x="780" y="310" width="140" height="75" as="geometry" />
        </mxCell>
        <mxCell id="m1x12OwFOVvSkLnHGj8w-11" value="" style="endArrow=none;html=1;rounded=0;entryX=0;entryY=0.5;entryDx=0;entryDy=0;fontSize=14;fontFamily=Times New Roman;" parent="1" source="m1x12OwFOVvSkLnHGj8w-1" target="m1x12OwFOVvSkLnHGj8w-5" edge="1">
          <mxGeometry width="50" height="50" relative="1" as="geometry">
            <mxPoint x="270" y="840" as="sourcePoint" />
            <mxPoint x="320" y="790" as="targetPoint" />
          </mxGeometry>
        </mxCell>
        <mxCell id="m1x12OwFOVvSkLnHGj8w-12" value="" style="endArrow=none;html=1;rounded=0;fontSize=14;fontFamily=Times New Roman;" parent="1" source="m1x12OwFOVvSkLnHGj8w-1" target="m1x12OwFOVvSkLnHGj8w-4" edge="1">
          <mxGeometry width="50" height="50" relative="1" as="geometry">
            <mxPoint x="230" y="756" as="sourcePoint" />
            <mxPoint x="350" y="808" as="targetPoint" />
          </mxGeometry>
        </mxCell>
        <mxCell id="m1x12OwFOVvSkLnHGj8w-13" value="" style="endArrow=block;html=1;rounded=0;endFill=0;fontSize=14;fontFamily=Times New Roman;" parent="1" edge="1">
          <mxGeometry width="50" height="50" relative="1" as="geometry">
            <mxPoint x="205" y="700" as="sourcePoint" />
            <mxPoint x="205" y="510" as="targetPoint" />
          </mxGeometry>
        </mxCell>
        <mxCell id="m1x12OwFOVvSkLnHGj8w-14" value="Система шашлычной" style="text;html=1;align=center;verticalAlign=middle;resizable=0;points=[];autosize=1;strokeColor=none;fillColor=none;fontSize=14;fontFamily=Times New Roman;" parent="1" vertex="1">
          <mxGeometry x="850" y="230" width="150" height="30" as="geometry" />
        </mxCell>
        <mxCell id="m1x12OwFOVvSkLnHGj8w-15" value="Редактирование&lt;br&gt;профиля" style="ellipse;whiteSpace=wrap;html=1;fontSize=14;fontFamily=Times New Roman;" parent="1" vertex="1">
          <mxGeometry x="530" y="455" width="140" height="75" as="geometry" />
        </mxCell>
        <mxCell id="m1x12OwFOVvSkLnHGj8w-16" value="Удаление&lt;br&gt;профиля" style="ellipse;whiteSpace=wrap;html=1;fontSize=14;fontFamily=Times New Roman;" parent="1" vertex="1">
          <mxGeometry x="530" y="575" width="140" height="75" as="geometry" />
        </mxCell>
        <mxCell id="m1x12OwFOVvSkLnHGj8w-17" value="" style="endArrow=classic;html=1;rounded=0;dashed=1;entryX=0;entryY=0.5;entryDx=0;entryDy=0;" parent="1" source="m1x12OwFOVvSkLnHGj8w-8" target="m1x12OwFOVvSkLnHGj8w-15" edge="1">
          <mxGeometry width="50" height="50" relative="1" as="geometry">
            <mxPoint x="881" y="101" as="sourcePoint" />
            <mxPoint x="808" y="13" as="targetPoint" />
            <Array as="points" />
          </mxGeometry>
        </mxCell>
        <mxCell id="m1x12OwFOVvSkLnHGj8w-18" value="&quot;включить&quot;" style="edgeLabel;html=1;align=center;verticalAlign=middle;resizable=0;points=[];" parent="m1x12OwFOVvSkLnHGj8w-17" vertex="1" connectable="0">
          <mxGeometry x="-0.2157" relative="1" as="geometry">
            <mxPoint as="offset" />
          </mxGeometry>
        </mxCell>
        <mxCell id="m1x12OwFOVvSkLnHGj8w-19" value="" style="endArrow=classic;html=1;rounded=0;dashed=1;" parent="1" source="m1x12OwFOVvSkLnHGj8w-8" target="m1x12OwFOVvSkLnHGj8w-16" edge="1">
          <mxGeometry width="50" height="50" relative="1" as="geometry">
            <mxPoint x="474" y="522" as="sourcePoint" />
            <mxPoint x="560" y="478" as="targetPoint" />
            <Array as="points" />
          </mxGeometry>
        </mxCell>
        <mxCell id="m1x12OwFOVvSkLnHGj8w-20" value="&quot;включить&quot;" style="edgeLabel;html=1;align=center;verticalAlign=middle;resizable=0;points=[];" parent="m1x12OwFOVvSkLnHGj8w-19" vertex="1" connectable="0">
          <mxGeometry x="-0.2157" relative="1" as="geometry">
            <mxPoint as="offset" />
          </mxGeometry>
        </mxCell>
        <mxCell id="m1x12OwFOVvSkLnHGj8w-21" value="" style="endArrow=none;html=1;rounded=0;fontSize=14;fontFamily=Times New Roman;entryX=0.011;entryY=0.378;entryDx=0;entryDy=0;entryPerimeter=0;" parent="1" target="m1x12OwFOVvSkLnHGj8w-8" edge="1">
          <mxGeometry width="50" height="50" relative="1" as="geometry">
            <mxPoint x="230" y="450" as="sourcePoint" />
            <mxPoint x="364" y="720" as="targetPoint" />
          </mxGeometry>
        </mxCell>
        <mxCell id="m1x12OwFOVvSkLnHGj8w-22" value="" style="endArrow=none;html=1;rounded=0;fontSize=14;fontFamily=Times New Roman;" parent="1" target="m1x12OwFOVvSkLnHGj8w-7" edge="1">
          <mxGeometry width="50" height="50" relative="1" as="geometry">
            <mxPoint x="230" y="433" as="sourcePoint" />
            <mxPoint x="355" y="538" as="targetPoint" />
          </mxGeometry>
        </mxCell>
        <mxCell id="m1x12OwFOVvSkLnHGj8w-23" value="" style="endArrow=none;html=1;rounded=0;fontSize=14;fontFamily=Times New Roman;entryX=0.071;entryY=0.8;entryDx=0;entryDy=0;entryPerimeter=0;" parent="1" target="m1x12OwFOVvSkLnHGj8w-6" edge="1">
          <mxGeometry width="50" height="50" relative="1" as="geometry">
            <mxPoint x="230" y="420" as="sourcePoint" />
            <mxPoint x="340" y="450" as="targetPoint" />
          </mxGeometry>
        </mxCell>
        <mxCell id="m1x12OwFOVvSkLnHGj8w-24" value="Менеджер" style="shape=umlActor;verticalLabelPosition=bottom;verticalAlign=top;html=1;outlineConnect=0;fontSize=14;fontFamily=Times New Roman;" parent="1" vertex="1">
          <mxGeometry x="1090" y="490" width="30" height="60" as="geometry" />
        </mxCell>
        <mxCell id="m1x12OwFOVvSkLnHGj8w-25" value="Блокировка&lt;br&gt;аккаунта" style="ellipse;whiteSpace=wrap;html=1;fontSize=14;fontFamily=Times New Roman;" parent="1" vertex="1">
          <mxGeometry x="700" y="770" width="140" height="75" as="geometry" />
        </mxCell>
        <mxCell id="m1x12OwFOVvSkLnHGj8w-26" value="Удаление&lt;br&gt;аккаунта" style="ellipse;whiteSpace=wrap;html=1;fontSize=14;fontFamily=Times New Roman;" parent="1" vertex="1">
          <mxGeometry x="850" y="770" width="140" height="75" as="geometry" />
        </mxCell>
        <mxCell id="m1x12OwFOVvSkLnHGj8w-27" value="" style="endArrow=classic;html=1;rounded=0;dashed=1;exitX=1;exitY=1;exitDx=0;exitDy=0;" parent="1" source="m1x12OwFOVvSkLnHGj8w-9" target="m1x12OwFOVvSkLnHGj8w-26" edge="1">
          <mxGeometry width="50" height="50" relative="1" as="geometry">
            <mxPoint x="487" y="562" as="sourcePoint" />
            <mxPoint x="565" y="580" as="targetPoint" />
            <Array as="points" />
          </mxGeometry>
        </mxCell>
        <mxCell id="m1x12OwFOVvSkLnHGj8w-28" value="&quot;включить&quot;" style="edgeLabel;html=1;align=center;verticalAlign=middle;resizable=0;points=[];" parent="m1x12OwFOVvSkLnHGj8w-27" vertex="1" connectable="0">
          <mxGeometry x="-0.2157" relative="1" as="geometry">
            <mxPoint as="offset" />
          </mxGeometry>
        </mxCell>
        <mxCell id="m1x12OwFOVvSkLnHGj8w-29" value="" style="endArrow=classic;html=1;rounded=0;dashed=1;exitX=0;exitY=1;exitDx=0;exitDy=0;" parent="1" source="m1x12OwFOVvSkLnHGj8w-9" target="m1x12OwFOVvSkLnHGj8w-25" edge="1">
          <mxGeometry width="50" height="50" relative="1" as="geometry">
            <mxPoint x="797" y="695" as="sourcePoint" />
            <mxPoint x="714" y="775" as="targetPoint" />
            <Array as="points" />
          </mxGeometry>
        </mxCell>
        <mxCell id="m1x12OwFOVvSkLnHGj8w-30" value="&quot;включить&quot;" style="edgeLabel;html=1;align=center;verticalAlign=middle;resizable=0;points=[];" parent="m1x12OwFOVvSkLnHGj8w-29" vertex="1" connectable="0">
          <mxGeometry x="-0.2157" relative="1" as="geometry">
            <mxPoint as="offset" />
          </mxGeometry>
        </mxCell>
        <mxCell id="m1x12OwFOVvSkLnHGj8w-31" value="Удаление товара" style="ellipse;whiteSpace=wrap;html=1;fontSize=14;fontFamily=Times New Roman;" parent="1" vertex="1">
          <mxGeometry x="780" y="530" width="140" height="75" as="geometry" />
        </mxCell>
        <mxCell id="m1x12OwFOVvSkLnHGj8w-32" value="Популярность определенного товара" style="ellipse;whiteSpace=wrap;html=1;fontSize=14;fontFamily=Times New Roman;" parent="1" vertex="1">
          <mxGeometry x="530" y="260" width="140" height="75" as="geometry" />
        </mxCell>
        <mxCell id="m1x12OwFOVvSkLnHGj8w-33" value="Активность пользователей" style="ellipse;whiteSpace=wrap;html=1;fontSize=14;fontFamily=Times New Roman;" parent="1" vertex="1">
          <mxGeometry x="530" y="350" width="140" height="75" as="geometry" />
        </mxCell>
        <mxCell id="m1x12OwFOVvSkLnHGj8w-34" value="" style="endArrow=classic;html=1;rounded=0;dashed=1;" parent="1" source="m1x12OwFOVvSkLnHGj8w-32" target="m1x12OwFOVvSkLnHGj8w-10" edge="1">
          <mxGeometry width="50" height="50" relative="1" as="geometry">
            <mxPoint x="475" y="523" as="sourcePoint" />
            <mxPoint x="570" y="478" as="targetPoint" />
            <Array as="points" />
          </mxGeometry>
        </mxCell>
        <mxCell id="m1x12OwFOVvSkLnHGj8w-35" value="&quot;расширить&quot;" style="edgeLabel;html=1;align=center;verticalAlign=middle;resizable=0;points=[];" parent="m1x12OwFOVvSkLnHGj8w-34" vertex="1" connectable="0">
          <mxGeometry x="-0.2157" relative="1" as="geometry">
            <mxPoint as="offset" />
          </mxGeometry>
        </mxCell>
        <mxCell id="m1x12OwFOVvSkLnHGj8w-36" value="" style="endArrow=classic;html=1;rounded=0;dashed=1;entryX=0;entryY=0.5;entryDx=0;entryDy=0;" parent="1" source="m1x12OwFOVvSkLnHGj8w-33" target="m1x12OwFOVvSkLnHGj8w-10" edge="1">
          <mxGeometry width="50" height="50" relative="1" as="geometry">
            <mxPoint x="666" y="285" as="sourcePoint" />
            <mxPoint x="741" y="315" as="targetPoint" />
            <Array as="points" />
          </mxGeometry>
        </mxCell>
        <mxCell id="m1x12OwFOVvSkLnHGj8w-37" value="&quot;расширить&quot;" style="edgeLabel;html=1;align=center;verticalAlign=middle;resizable=0;points=[];" parent="m1x12OwFOVvSkLnHGj8w-36" vertex="1" connectable="0">
          <mxGeometry x="-0.2157" relative="1" as="geometry">
            <mxPoint as="offset" />
          </mxGeometry>
        </mxCell>
        <mxCell id="m1x12OwFOVvSkLnHGj8w-38" value="" style="endArrow=none;html=1;rounded=0;fontSize=14;fontFamily=Times New Roman;entryX=1;entryY=1;entryDx=0;entryDy=0;exitX=0;exitY=0.3333333333333333;exitDx=0;exitDy=0;exitPerimeter=0;" parent="1" source="m1x12OwFOVvSkLnHGj8w-24" target="m1x12OwFOVvSkLnHGj8w-10" edge="1">
          <mxGeometry width="50" height="50" relative="1" as="geometry">
            <mxPoint x="940" y="470" as="sourcePoint" />
            <mxPoint x="810.000020059942" y="360.2942746961995" as="targetPoint" />
          </mxGeometry>
        </mxCell>
        <mxCell id="m1x12OwFOVvSkLnHGj8w-39" value="" style="endArrow=none;html=1;rounded=0;fontSize=14;fontFamily=Times New Roman;exitX=0;exitY=0.3333333333333333;exitDx=0;exitDy=0;exitPerimeter=0;" parent="1" source="m1x12OwFOVvSkLnHGj8w-24" target="m1x12OwFOVvSkLnHGj8w-31" edge="1">
          <mxGeometry width="50" height="50" relative="1" as="geometry">
            <mxPoint x="940" y="490" as="sourcePoint" />
            <mxPoint x="846" y="364" as="targetPoint" />
          </mxGeometry>
        </mxCell>
        <mxCell id="m1x12OwFOVvSkLnHGj8w-40" value="" style="endArrow=none;html=1;rounded=0;fontSize=14;fontFamily=Times New Roman;exitX=0;exitY=0.3333333333333333;exitDx=0;exitDy=0;exitPerimeter=0;" parent="1" source="m1x12OwFOVvSkLnHGj8w-24" target="m1x12OwFOVvSkLnHGj8w-9" edge="1">
          <mxGeometry width="50" height="50" relative="1" as="geometry">
            <mxPoint x="940" y="510" as="sourcePoint" />
            <mxPoint x="851" y="469" as="targetPoint" />
          </mxGeometry>
        </mxCell>
        <mxCell id="m1x12OwFOVvSkLnHGj8w-42" value="Добавление товара" style="ellipse;whiteSpace=wrap;html=1;fontSize=14;fontFamily=Times New Roman;" parent="1" vertex="1">
          <mxGeometry x="780" y="415" width="140" height="75" as="geometry" />
        </mxCell>
        <mxCell id="m1x12OwFOVvSkLnHGj8w-43" value="" style="endArrow=none;html=1;rounded=0;entryX=1;entryY=0.5;entryDx=0;entryDy=0;exitX=0;exitY=0.3333333333333333;exitDx=0;exitDy=0;exitPerimeter=0;" parent="1" source="m1x12OwFOVvSkLnHGj8w-24" target="m1x12OwFOVvSkLnHGj8w-42" edge="1">
          <mxGeometry width="50" height="50" relative="1" as="geometry">
            <mxPoint x="760" y="580" as="sourcePoint" />
            <mxPoint x="810" y="530" as="targetPoint" />
          </mxGeometry>
        </mxCell>
      </root>
    </mxGraphModel>
  </diagram>
</mxfile>
